<svg width="152" height="19" viewBox="0 0 152 19" fill="none" xmlns="http://www.w3.org/2000/svg">
<path d="M7.488 18.336C10.968 18.336 13.848 16.584 13.848 12.96C13.848 9.192 10.632 8.4 8.088 7.752C6.288 7.32 4.848 6.96 4.848 5.784C4.848 4.68 6.024 4.176 7.2 4.176C8.568 4.176 9.768 4.848 9.768 6.312H13.344C13.344 2.952 11.16 0.887999 7.296 0.887999C3.576 0.887999 1.2 2.712 1.2 5.928C1.2 9.552 4.272 10.296 6.816 10.92C8.64 11.328 10.176 11.688 10.176 13.008C10.176 14.256 8.832 14.976 7.464 14.976C5.976 14.976 4.632 14.184 4.632 12.576H0.96C0.96 16.176 3.624 18.336 7.488 18.336ZM28.0427 1.2H15.0587V4.584H19.7387V18H23.3627V4.584H28.0427V1.2ZM34.1143 14.64V11.184H39.9463V7.896H34.1143V4.56H40.5703V1.2H30.4903V18H40.8343V14.64H34.1143ZM64.4646 18L61.8726 1.2H58.2246L53.6646 11.52L49.1046 1.2H45.4806L42.8406 18H46.5366L48.1926 7.056L53.2086 17.976H54.0966L59.1126 7.056L60.7686 18H64.4646ZM82.9894 1.2V7.68H76.6534V1.2H73.0294V18H76.6534V11.064H82.9894V18H86.6134V1.2H82.9894ZM101.603 18H105.563L98.7709 1.2H95.3389L88.7389 18H92.6029L93.7549 14.832H100.427L101.603 18ZM97.0909 5.64L99.2989 11.664H94.8829L97.0909 5.64ZM117.644 1.2H104.66V4.584H109.34V18H112.964V4.584H117.644V1.2ZM127.257 18.384C131.409 18.384 134.673 15.6 135.441 11.448H131.769C131.169 13.56 129.465 14.904 127.257 14.904C124.401 14.904 122.265 12.648 122.265 9.624C122.265 6.6 124.401 4.32 127.257 4.32C129.369 4.32 131.049 5.568 131.745 7.536H135.369C134.601 3.552 131.337 0.839999 127.257 0.839999C122.313 0.839999 118.569 4.632 118.569 9.624C118.569 14.592 122.313 18.384 127.257 18.384ZM148.028 1.2V7.68H141.692V1.2H138.068V18H141.692V11.064H148.028V18H151.652V1.2H148.028Z" fill="white"/>
</svg>
