<svg xmlns="http://www.w3.org/2000/svg" viewBox="0 0 485.54 487.29"><defs><style>.cls-1,.cls-4{fill:#fff;}.cls-2,.cls-3,.cls-8{fill:none;}.cls-3,.cls-8{stroke:#fff;stroke-linejoin:round;}.cls-3{stroke-width:6px;}.cls-4{font-size:76.55px;font-family:Mont-SemiBold, Mont;font-weight:600;}.cls-5{letter-spacing:-0.01em;}.cls-6{letter-spacing:-0.07em;}.cls-7{letter-spacing:-0.03em;}.cls-8{stroke-width:9px;}</style></defs><title>Asset 2</title><g id="Layer_2" data-name="Layer 2"><g id="Layer_1_copy" data-name="Layer 1 copy"><path class="cls-1" d="M390.32,65.64C377.94,17.13,323.88-8.9,281,10.1c-1.24.55-2.52,1-3.73,1.63A49.8,49.8,0,0,1,252,16.93c-7.9-.35-12.74,5.59-10.17,12.15,1.11,2.83,3.37,4.36,6,5.51,13.1,5.69,26.66,6.46,40.75,5,9.48-1,19.13-.73,28.68-.37a6.79,6.79,0,0,1,6.62,8.55,11,11,0,0,0,1.62,9.3,26.8,26.8,0,0,1,2.26,3.69,11.53,11.53,0,0,0,9.54,6.78A7.08,7.08,0,0,1,342,70.7c1.22,2.27,1.42,5.08,1.85,6.84-2.92,2.1-5.48,3.51-7.49,5.48a31.78,31.78,0,0,0-8.49,14.36c-1.73,6.33-2.21,12.68,3.49,17.94l-6.65,6c-3.54-3.72-7.61-5.63-12.45-4.49-11.75,2.77-21.48,8.8-28.45,18.77-2.74,3.9-4.95,8.27-4.24,13.26a4.76,4.76,0,0,1-2.11,5.14,28.62,28.62,0,0,0-2.55,2.38c-4.1,3.8-7.94,7.38-13.51,9.75-14.8,6.31-25.65,17.29-31,32.83-1.76,5.14-2.36,10.19-.86,14.84a4.85,4.85,0,0,1,2.06-.18,28,28,0,0,0,4.48.12,11.26,11.26,0,0,1-1.22-5.31,25.16,25.16,0,0,1,1.16-7.15c4.22-13.11,13.5-22,25.07-28.58,7.63-4.36,12.19-2.53,16,5.39a4.45,4.45,0,0,0,3.57,1.9c2-.17,2.47-2,2-3.79a15.29,15.29,0,0,0-6.36-9.08c-.68-.46-1.34-.94-2.25-1.59,3.71-3.49,7.27-6.64,10.56-10,.93-.95,1.81-2.9,1.46-4-1.42-4.25-.17-7.93,2-11.34,5.76-9.17,14.34-14.54,24.63-17.2,5.29-1.37,9.1,2.37,8.47,7.87-1.49,12.92-11.34,22.8-25.26,25.26-2.2.39-4.18,1-3.68,3.75.45,2.52,2.39,2.59,4.52,2.28,17.39-2.51,29.78-16.14,30.59-33.63,0-.71.17-1.76.64-2.06,4.85-3.09,7.51-9.31,14.12-9.89a3.62,3.62,0,0,0,1.55-.76c7-4.86,11.27-11.36,12.2-19.9.24-2.17-.09-4.32-2.84-4.48-2.52-.15-3.18,1.71-3.32,3.86a19.09,19.09,0,0,1-7.94,14.27,8,8,0,0,1-5.51,1.27c-2.33-.37-3.1-2.63-3.3-4.92-.62-7,2.72-12.51,6.82-17.68,1.94-2.45,4-4.29,7.68-3.05,2.32.79,4-1.45,3.4-3.85-.35-1.3-.67-2.6-.89-3.92a60.5,60.5,0,0,0-8.22-22.22c-1.17-1.88-2.48-3.56-4.84-2.17s-1.7,3.35-.42,5.24c.6.9,1.09,1.88,1.63,2.83l-.63.64c-1-.59-2.39-.94-3-1.81a63.94,63.94,0,0,1-4.57-7.42,5.26,5.26,0,0,1-.22-2.81c.24-2.55.6-5.1,1-8.28,3.22,1.86,6.82,3.54,10,5.82,19.89,14.25,27.48,42.73,18,66.6-5.74,14.45-16.24,25-27.71,34.92a236.28,236.28,0,0,0-20.1,18.89c-17.77,19.43-29.63,42-34.49,68-.4,2.15-.18,4.08,2.35,4.44,2.26.32,3.15-1.24,3.59-3.3.9-4.17,1.77-8.36,3-12.44,8.08-27.09,23.84-49.08,45.08-67.4,5.79-5,11.7-9.92,17-15.39,19.86-20.37,25.56-44.31,17-71.46-6.78-21.4-25.5-36.43-47.22-37.75-7.32-.44-14.71,0-22.06.27C287,32.93,278.94,34,270.84,34c-7.31,0-14.34-2.13-21-5.16-1.63-.74-3.17-1.89-2.27-3.71.52-1.07,2.28-1.57,3.53-2.24.3-.16.76,0,1.15,0,8.9.78,17.28-1.09,25.46-4.57,5.78-2.46,11.61-5.21,17.7-6.43,30.27-6,55.72,3.39,74.8,27.05,18,22.34,21.2,48.23,12.53,75.54-5.94,18.72-15.72,35.31-27.88,50.61C340,183.68,331.7,204.56,327.87,227a7.21,7.21,0,0,1,.82.43,11.63,11.63,0,0,1,4.64,5.9c.27-2.42.55-4.84.86-7.26.45-3.41,1.47-6.75,2.06-9.39l1.76-6.33a123.78,123.78,0,0,1,16.21-34.17c1.28-1.67,6.07-8.26,7.25-9.78a172.93,172.93,0,0,0,22.35-37.28C392.76,108.65,396,87.72,390.32,65.64Z"/><path class="cls-1" d="M270.12,205.25c-.62.13-1.05,1.08-1.58,1.65a59.85,59.85,0,0,1-5.54,5.28,3.85,3.85,0,0,1,1.55,2.44c.2,1.22.42,2.44.64,3.66a60,60,0,0,0,8.75-8.35c.26-.29.7-.63.67-.91-.1-1.31.09-3.14-.66-3.76S271.39,205,270.12,205.25Z"/><path class="cls-1" d="M392.13,101.74a4,4,0,0,1-2.2-3.29"/><path class="cls-1" d="M268.49,191.64a20,20,0,0,1-14,16.54,8.07,8.07,0,0,1-10.5-8.43c.46-7.49,9-16.79,16.48-17.9C265.48,181.11,269.21,185.68,268.49,191.64Zm-5.88.42c.41-3-.94-4.92-2.83-3.87-4.56,2.55-8.39,5.93-9.67,11.31-.48,2,.86,3.23,2.79,2.83C256.94,201.47,262.05,196.07,262.61,192.06Z"/><path class="cls-1" d="M299.38,148.4a6.39,6.39,0,0,1-5.32-8.57c1.67-5,8.45-9.85,13.7-9.75a6,6,0,0,1,5.64,6.48C313,142.78,305.53,149.08,299.38,148.4Zm7.51-12.11c-3.17,1.09-5.83,2.44-7.16,5.87C304,141.85,306.16,140.05,306.89,136.29Z"/><path class="cls-1" d="M337.73,100.17c.33-3.8,2.95-7.07,4.85-6.77a2.94,2.94,0,0,1,2.71,3.47c-.3,3-3,6.07-4.89,5.46C339.21,102,338.31,100.67,337.73,100.17Z"/><path class="cls-1" d="M282.6,191.85c-.28,2.15-1.12,4-3.73,3.68-2.09-.27-2.77-1.89-2.43-3.87s1-4.21,3.64-3.91C282.29,188,283,189.65,282.6,191.85Z"/><line class="cls-2" x1="358.26" y1="170.57" x2="358.26" y2="170.57"/><path class="cls-1" d="M227,197.75c-.58-2.41-.32-4.28,1.66-6,2.74-2.36,3.42-5.41,2.65-9a60,60,0,0,0-8.8-20.74,10.58,10.58,0,0,0-8.72-4.91,6.73,6.73,0,0,1-4.21-2.34c-2.1-2.63-3.5-5.84-5.67-8.4-2.88-3.39-3.39-6.65-1.25-10.56,1.63-3,1-5.85-1.41-8.24-2.18-2.2-4.4-4.37-6.65-6.48-4.39-4.13-9.09-6.29-14.75-2.25a1.9,1.9,0,0,1-1.09.36c-.89-.06-2,.05-2.61-.42-2.28-1.75-4.4-3.7-6.57-5.58l.24-.48,2.47.44a27.08,27.08,0,0,0,31.77-22.71c2.27-15.68-8.91-30.78-25.49-34.44s-35.52,4.23-45.75,18.86c-11,15.78-10.4,37.42,1.12,54,6,8.57,11.63,17.38,16.74,26.47,9.87,17.58,14.68,36.43,11.95,56.72-.22,1.62-.5,3.23-.83,4.83a4.65,4.65,0,0,1,5,3.51l.36,1.25a92.53,92.53,0,0,0-5.55-57.61c-5.93-13.77-13.73-26.39-22.43-38.57-9.26-13-11.31-27.3-4.38-41.8,6.71-14,18.59-21.48,34.17-22.52,14.67-1,27.48,9.25,29.21,23a20.46,20.46,0,0,1-14.5,22.12c-10.07,3.18-17.93-.15-23-9.75-3.18-6-2.22-9.71,3.67-13.19a15.92,15.92,0,0,1,5.39-2c6.23-1,9.72,1.17,11.41,7,.58,2,1.66,3.13,3.77,2.63s2.47-2.14,2.13-4.09a13.47,13.47,0,0,0-11-11.31c-13.76-2.79-26.93,8.85-26.85,23.8a38.52,38.52,0,0,0,12,28.33c21.93,21.63,36.27,46.84,41,76.51a4.53,4.53,0,0,1,4.07,1.41c.95.95,1.9,1.94,2.75,3a132,132,0,0,0-14.1-45.74,154,154,0,0,0-30.13-40.3c-4.85-4.69-8-10.27-8.63-17.15a66.73,66.73,0,0,0,17.47,19.12c2.14,1.62,4.22,2.24,6.36.76,5.41-3.74,9.48-1.58,13.27,2.59a22,22,0,0,0,2.06,2c2.18,1.79,2.41,3.77.6,6.1-.61-.61-1.23-1.2-1.82-1.81-1.48-1.57-3.15-2.55-5-.72-1.68,1.67-.75,3.24.49,4.85,5,6.6,10.08,13.21,14.95,19.94,2.27,3.14,5,4.93,8.93,5.07a5.28,5.28,0,0,1,3.67,1.69,47.28,47.28,0,0,1,8.29,19c.21,1-.32,2.22-.5,3.34l-.81,0c-.47-1.14-.91-2.29-1.41-3.41q-1.8-4.12-3.65-8.24c-.87-1.94-2.28-3-4.39-2-2,.93-2,2.62-1.18,4.44.17.35.27.73.44,1.08a109.47,109.47,0,0,1,10,33.26c.31,2.22,1.07,4.15,3.8,3.67,2.55-.45,2.7-2.48,2.28-4.54C229,207,228.12,202.37,227,197.75Z"/><path class="cls-3" d="M336.51,236.44a119.53,119.53,0,0,1-.28,26.73c-7.16,57.83-54.65,99.55-106.06,93.19-25.76-3.19-47.62-17.85-62.12-39s-21.57-48.43-18-77.27a118,118,0,0,1,2.4-13.2,116,116,0,0,1,3.85-12.78l1.65-4.54,3.3,3.52,14.3,15.24,23.89-23.94,1.93-1.94,2.09,1.77,17.37,14.63,35.44-12.56,2.48-.88,1.18,2.34,17.56,35,41.6-22.57,2-1.09,1.57,1.67,13.05,13.9.79,1.73Z"/><text class="cls-4" transform="translate(0 464.02)"><tspan class="cls-5">S</tspan><tspan x="45.47" y="0">TEM H</tspan><tspan class="cls-6" x="280.32" y="0">A</tspan><tspan class="cls-7" x="329.31" y="0">T</tspan><tspan x="370.56" y="0">CH</tspan></text><line class="cls-8" x1="83.11" y1="362.04" x2="416.93" y2="362.04"/><line class="cls-8" x1="204.37" y1="385.48" x2="348.82" y2="385.48"/><line class="cls-8" x1="137.45" y1="385.48" x2="185.15" y2="385.48"/><path class="cls-1" d="M269.83,66.09,245.54,72.6c0,.45-.07.86-.07,1.26q0,16.31,0,32.62c0,5.36-5,9.78-10.7,9.4-3.71-.25-6.62-1.82-8.11-5.35-1.81-4.26.53-9.39,5.1-11.37a10.7,10.7,0,0,1,10.53.89V98.56l0-26.48c0-1.71.21-2,1.88-2.43l26.14-7c2-.53,2.67,0,2.68,2,0,10.92.07,21.83.06,32.75,0,5.61-5.75,10.13-11.58,9.21-5.08-.79-8.32-4.67-7.8-9.35.42-3.76,3.85-7.24,7.93-8.07a10.16,10.16,0,0,1,7.28,1.09c.21.13.44.24.66.35a.67.67,0,0,0,.24,0Z"/><path class="cls-1" d="M185.12,4.51v9.56c0,4.73,0,9.47,0,14.21a6.23,6.23,0,0,1-3.49,5.87,6.79,6.79,0,0,1-7.18-.13c-3.88-2.39-3.57-7.82.53-10.16a7.31,7.31,0,0,1,6.62-.46l.75.26V19.42q0-8.75,0-17.49c0-.18-.06-.4,0-.54.25-.48.46-1.17.87-1.33a1.83,1.83,0,0,1,1.56.35c3,2.62,6,5.24,8.82,8a38.16,38.16,0,0,1,3.75,4.54,1.42,1.42,0,0,1-.16,2.21c-.75.49-1.52.25-2.17-.75-2.23-3.45-5.44-5.94-8.45-8.64C186.2,5.4,185.77,5.06,185.12,4.51Z"/></g></g></svg>